<?xml version="1.0" encoding="iso-8859-1"?>
<!-- Generator: Adobe Illustrator 19.0.0, SVG Export Plug-In . SVG Version: 6.00 Build 0)  -->
<svg version="1.1" id="Capa_1" xmlns="http://www.w3.org/2000/svg" xmlns:xlink="http://www.w3.org/1999/xlink" x="0px" y="0px"
	 viewBox="0 0 512.001 512.001" style="enable-background:new 0 0 512.001 512.001;" xml:space="preserve">
<linearGradient id="SVGID_1_" gradientUnits="userSpaceOnUse" x1="202.2978" y1="217.0933" x2="202.2978" y2="-76.5467" gradientTransform="matrix(1.0039 0 0 -1.0039 0.1922 516.5615)">
	<stop  offset="0" style="stop-color:#FF931E"/>
	<stop  offset="1" style="stop-color:#FF5D00"/>
</linearGradient>
<polygon style="fill:url(#SVGID_1_);" points="366.862,252.087 366.862,503.945 39.704,503.945 39.704,252.087 203.283,87.518 "/>
<linearGradient id="SVGID_2_" gradientUnits="userSpaceOnUse" x1="166.3047" y1="285.9792" x2="61.8947" y2="390.3792" gradientTransform="matrix(1.0039 0 0 -1.0039 0.1922 516.5615)">
	<stop  offset="0" style="stop-color:#FF5D00;stop-opacity:0"/>
	<stop  offset="1" style="stop-color:#D54003"/>
</linearGradient>
<polygon style="fill:url(#SVGID_2_);" points="366.862,252.087 366.862,503.945 263.569,503.945 39.704,280.08 39.704,252.087 
	203.283,87.518 "/>
<linearGradient id="SVGID_3_" gradientUnits="userSpaceOnUse" x1="245.3364" y1="157.9832" x2="230.3264" y2="386.5332" gradientTransform="matrix(1.0039 0 0 -1.0039 0.1922 516.5615)">
	<stop  offset="0" style="stop-color:#FF5D00;stop-opacity:0"/>
	<stop  offset="1" style="stop-color:#D54003"/>
</linearGradient>
<path style="fill:url(#SVGID_3_);" d="M107.718,183.662c2.063,4.942,5.508,9.247,10.181,12.91c1.77,2.317,3.914,4.452,6.406,6.406
	c1.77,2.317,3.914,4.452,6.406,6.406c1.77,2.317,3.914,4.452,6.406,6.406c1.77,2.317,3.914,4.452,6.406,6.406
	c1.77,2.317,3.914,4.452,6.406,6.406c1.323,1.733,2.86,3.361,4.591,4.89c-1.039,0.951-2.038,2.09-2.925,3.074
	c-1.34,1.497-2.472,3.347-3.029,5.511c-0.565,2.156-0.426,4.573,0.303,6.713c0.724,2.15,1.936,4.042,3.34,5.637l214.655,214.231
	V252.087l-163.58-164.57L107.718,183.662z"/>
<linearGradient id="SVGID_4_" gradientUnits="userSpaceOnUse" x1="169.189" y1="78.9135" x2="22.17" y2="225.9335" gradientTransform="matrix(1.0039 0 0 -1.0039 0.1922 516.5615)">
	<stop  offset="0" style="stop-color:#FF5D00;stop-opacity:0"/>
	<stop  offset="1" style="stop-color:#D54003"/>
</linearGradient>
<path style="fill:url(#SVGID_4_);" d="M316.308,503.945h-160l-87.952-87.952c-3.872-2.51-6.449-6.866-6.449-11.807v-70.788
	c0-7.755,6.315-14.07,14.07-14.07h51.033c4.952,0,9.308,2.578,11.818,6.449l-0.382,0.304L316.308,503.945z"/>
<path style="fill:#503837;" d="M127.01,410.007H75.981c-3.218,0-5.827-2.609-5.827-5.827v-70.776c0-3.218,2.609-5.827,5.827-5.827
	h51.029c3.218,0,5.827,2.609,5.827,5.827v70.776C132.837,407.398,130.228,410.007,127.01,410.007z"/>
<path style="fill:#FFFFFF;" d="M127.01,418.254H75.981c-7.76,0-14.074-6.314-14.074-14.074v-70.777
	c0-7.76,6.314-14.074,14.074-14.074h51.029c7.76,0,14.074,6.314,14.074,14.074v70.777
	C141.084,411.94,134.771,418.254,127.01,418.254z M78.402,401.759h46.187v-65.935H78.402V401.759z"/>
<linearGradient id="SVGID_5_" gradientUnits="userSpaceOnUse" x1="344.8287" y1="108.0032" x2="250.6987" y2="202.1332" gradientTransform="matrix(1.0039 0 0 -1.0039 0.1922 516.5615)">
	<stop  offset="0" style="stop-color:#FF5D00;stop-opacity:0"/>
	<stop  offset="1" style="stop-color:#D54003"/>
</linearGradient>
<path style="fill:url(#SVGID_5_);" d="M366.868,348.526v155.419h-5.02l-87.952-87.952c-3.883-2.51-6.461-6.866-6.461-11.807v-70.788
	c0-7.755,6.315-14.07,14.081-14.07h51.022c4.952,0,9.308,2.578,11.818,6.449l0.203,0.158l-0.136,0.147L366.868,348.526z"/>
<path style="fill:#503837;" d="M332.542,410.007h-51.029c-3.218,0-5.827-2.609-5.827-5.827v-70.776c0-3.218,2.609-5.827,5.827-5.827
	h51.029c3.218,0,5.827,2.609,5.827,5.827v70.776C338.369,407.398,335.76,410.007,332.542,410.007z"/>
<path style="fill:#FFFFFF;" d="M332.542,418.254h-51.029c-7.76,0-14.074-6.314-14.074-14.074v-70.777
	c0-7.76,6.314-14.074,14.074-14.074h51.029c7.76,0,14.074,6.314,14.074,14.074v70.777
	C346.616,411.94,340.303,418.254,332.542,418.254z M283.933,401.759h46.187v-65.935h-46.187V401.759z"/>
<linearGradient id="SVGID_6_" gradientUnits="userSpaceOnUse" x1="202.2754" y1="306.3433" x2="202.2754" y2="141.3333" gradientTransform="matrix(1.0039 0 0 -1.0039 0.1922 516.5615)">
	<stop  offset="0" style="stop-color:#FFE7A5"/>
	<stop  offset="0.966" style="stop-color:#FFBF5C"/>
	<stop  offset="1" style="stop-color:#DB9E36"/>
</linearGradient>
<path style="fill:url(#SVGID_6_);" d="M403.854,274.839L213.128,84.051c-5.436-5.436-14.251-5.436-19.687,0L2.668,274.824
	c-3.557,3.557-3.557,9.322,0,12.879l8.131,8.131c3.557,3.557,9.322,3.557,12.879,0l177.015-177.016c1.432-1.432,3.752-1.432,5.183,0
	l176.968,177.03c3.557,3.557,9.322,3.557,12.879,0l8.131-8.131C407.411,284.161,407.411,278.396,403.854,274.839z"/>
<linearGradient id="SVGID_7_" gradientUnits="userSpaceOnUse" x1="339.8589" y1="281.3834" x2="-2.514" y2="623.7534" gradientTransform="matrix(1.0039 0 0 -1.0039 0.1922 516.5615)">
	<stop  offset="0" style="stop-color:#FF5D00;stop-opacity:0"/>
	<stop  offset="1" style="stop-color:#D54003"/>
</linearGradient>
<path style="fill:url(#SVGID_7_);" d="M213.128,84.051c-2.719-2.719-6.281-4.077-9.843-4.077v37.772
	c0.938,0,1.876,0.357,2.591,1.073l176.968,177.031c3.557,3.557,9.322,3.557,12.879,0l8.131-8.131c3.557-3.557,3.557-9.322,0-12.879
	L213.128,84.051z"/>
<path style="fill:#DB9E36;" d="M169.193,503.94V345.034c0-18.828,15.263-34.09,34.09-34.09l0,0c18.828,0,34.09,15.263,34.09,34.09
	V503.94H169.193z"/>
<path style="fill:#9E6429;" d="M245.816,503.94h-16.884V344.842c0-14.001-11.456-25.456-25.456-25.456h-0.384
	c-14.059,0-25.456,11.398-25.456,25.456V503.94h-16.884V345.034c0-23.49,19.042-42.532,42.532-42.532l0,0
	c23.49,0,42.532,19.042,42.532,42.532L245.816,503.94L245.816,503.94z"/>
<circle style="fill:#FFFFFF;" cx="191.187" cy="378.027" r="7.698"/>
<rect x="39.699" y="458.903" style="fill:#654E48;" width="327.168" height="45.04"/>
<linearGradient id="SVGID_8_" gradientUnits="userSpaceOnUse" x1="20.6932" y1="59.9147" x2="79.7832" y2="0.8247" gradientTransform="matrix(1.0039 0 0 -1.0039 0.1922 516.5615)">
	<stop  offset="0" style="stop-color:#9EB644"/>
	<stop  offset="1" style="stop-color:#738611"/>
</linearGradient>
<path style="fill:url(#SVGID_8_);" d="M96.153,486.34c0,6.215-1.177,12.147-3.322,17.6H3.322C1.177,498.489,0,492.556,0,486.34
	c0-6.053,1.116-11.839,3.159-17.17c6.911-18.08,24.415-30.906,44.916-30.906s38.005,12.826,44.916,30.906
	C95.036,474.502,96.153,480.288,96.153,486.34z"/>
<linearGradient id="SVGID_9_" gradientUnits="userSpaceOnUse" x1="72.1395" y1="46.9139" x2="114.9995" y2="4.054" gradientTransform="matrix(1.0039 0 0 -1.0039 0.1922 516.5615)">
	<stop  offset="0" style="stop-color:#9EB644"/>
	<stop  offset="1" style="stop-color:#738611"/>
</linearGradient>
<path style="fill:url(#SVGID_9_);" d="M127.153,491.173c0,4.509-0.853,8.812-2.41,12.767H59.814
	c-1.557-3.954-2.41-8.258-2.41-12.767c0-4.39,0.809-8.588,2.292-12.456c5.014-13.115,17.711-22.42,32.583-22.42
	s27.57,9.304,32.583,22.42C126.344,482.585,127.153,486.783,127.153,491.173z"/>
<linearGradient id="SVGID_10_" gradientUnits="userSpaceOnUse" x1="317.4379" y1="67.7624" x2="386.3179" y2="-1.1176" gradientTransform="matrix(1.0039 0 0 -1.0039 0.1922 516.5615)">
	<stop  offset="0" style="stop-color:#9EB644"/>
	<stop  offset="1" style="stop-color:#738611"/>
</linearGradient>
<path style="fill:url(#SVGID_10_);" d="M406.521,483.425c0,7.245-1.371,14.16-3.873,20.515H298.312
	c-2.502-6.355-3.873-13.27-3.873-20.515c0-7.056,1.301-13.8,3.682-20.015c8.055-21.075,28.461-36.027,52.359-36.027
	s44.303,14.951,52.359,36.027C405.22,469.625,406.521,476.369,406.521,483.425z"/>
<linearGradient id="SVGID_11_" gradientUnits="userSpaceOnUse" x1="305.8463" y1="438.0634" x2="306.9563" y2="250.6034" gradientTransform="matrix(1.0039 0 0 -1.0039 0.1922 516.5615)">
	<stop  offset="0" style="stop-color:#E2EDF2"/>
	<stop  offset="1" style="stop-color:#9FC7E2"/>
</linearGradient>
<path style="fill:url(#SVGID_11_);" d="M507.866,38.562C494.344-1.645,393.647-2.175,282.953,37.377S93.483,141.587,107.005,181.794
	c6.296,18.719,31.492,28.833,67.79,30.311c8.858,20.227,35.546,34.643,71.742,40.891c2.334,11.097,9.76,21.184,20.937,29.582
	c-13.498,12.759-22.923,30.151-13.131,51.449c14.487,31.511,118.784,30.399,105.639,87.523c-1.289,5.603,4.431,10.165,9.364,7.46
	c38.465-21.092,134.522-82.856,92.5-154.4c11.684-10.59,18.278-22.992,17.854-36.057c-0.412-12.667-7.369-24.258-19.044-33.847
	c22.048-17.455,33.89-37.319,30.837-56.31c-2.262-14.07-12.422-25.871-28.238-34.782C497.204,86.627,514.851,59.332,507.866,38.562z
	"/>
<linearGradient id="SVGID_12_" gradientUnits="userSpaceOnUse" x1="448.8383" y1="398.4396" x2="187.7083" y2="217.8196" gradientTransform="matrix(1.0039 0 0 -1.0039 0.1922 516.5615)">
	<stop  offset="0" style="stop-color:#E2EDF2"/>
	<stop  offset="1" style="stop-color:#9FC7E2"/>
</linearGradient>
<path style="fill:url(#SVGID_12_);" d="M463.253,113.615c-31.772,25.256-77.822,50.243-131.334,69.364
	c-59.159,21.139-115.457,30.823-157.124,29.127c15.727,35.912,87.668,53.515,169.215,39.585
	c88.202-15.067,154.23-61.313,147.481-103.294C489.228,134.326,479.07,122.526,463.253,113.615z"/>
<linearGradient id="SVGID_13_" gradientUnits="userSpaceOnUse" x1="375.3763" y1="300.3364" x2="317.2363" y2="154.4264" gradientTransform="matrix(1.0039 0 0 -1.0039 0.1922 516.5615)">
	<stop  offset="0" style="stop-color:#E2EDF2"/>
	<stop  offset="1" style="stop-color:#9FC7E2"/>
</linearGradient>
<path style="fill:url(#SVGID_13_);" d="M344.01,251.691c-35.618,6.084-69.402,6.15-97.473,1.306
	c6.852,32.58,57.589,56.474,118.301,54.375c64.599-2.232,116.023-33.043,114.86-68.818c-0.412-12.667-7.369-24.258-19.044-33.847
	C433.962,225.839,392.312,243.44,344.01,251.691z"/>
<linearGradient id="SVGID_14_" gradientUnits="userSpaceOnUse" x1="385.1172" y1="237.0817" x2="311.3372" y2="120.6517" gradientTransform="matrix(1.0039 0 0 -1.0039 0.1922 516.5615)">
	<stop  offset="0" style="stop-color:#E2EDF2"/>
	<stop  offset="1" style="stop-color:#9FC7E2"/>
</linearGradient>
<path style="fill:url(#SVGID_14_);" d="M364.838,307.372c-40.034,1.383-75.727-8.536-97.364-24.794
	c-13.498,12.759-22.923,30.151-13.131,51.449c14.487,31.511,118.784,30.399,105.639,87.523c-1.289,5.603,4.431,10.165,9.364,7.46
	c38.464-21.092,134.522-82.856,92.5-154.4C441.537,293.02,405.846,305.956,364.838,307.372z"/>
<linearGradient id="SVGID_15_" gradientUnits="userSpaceOnUse" x1="283.78" y1="563.107" x2="292.11" y2="440.157" gradientTransform="matrix(0.9798 -0.1946 -0.1025 -0.8125 67.7604 559.6866)">
	<stop  offset="0" style="stop-color:#E2EDF2"/>
	<stop  offset="1" style="stop-color:#9FC7E2"/>
</linearGradient>
<path style="fill:url(#SVGID_15_);" d="M414.277,45.028c6.429,19.119-41.055,53.447-106.06,76.674s-122.914,26.558-129.344,7.439
	c-6.429-19.119,41.055-53.447,106.06-76.674S407.846,25.91,414.277,45.028z"/>
<linearGradient id="SVGID_16_" gradientUnits="userSpaceOnUse" x1="440.9869" y1="327.3797" x2="393.4269" y2="387.4497" gradientTransform="matrix(1.0039 0 0 -1.0039 0.1922 516.5615)">
	<stop  offset="0" style="stop-color:#E2EDF2;stop-opacity:0"/>
	<stop  offset="1" style="stop-color:#4975AD"/>
</linearGradient>
<path style="fill:url(#SVGID_16_);" d="M491.491,148.396c-2.262-14.07-12.422-25.871-28.238-34.782c2.201-1.749,4.329-3.5,6.39-5.25
	l-9.916-7.315c-4.752,3.724-9.4,7.177-14.097,10.551c-4.647,3.404-9.347,6.662-14.023,9.89
	c-9.367,6.443-18.819,12.597-28.337,18.705c-2.405,1.488-4.796,3.001-7.171,4.544c-1.168,0.805-2.409,1.488-3.614,2.236
	l-3.623,2.235c-4.765,3.109-9.705,5.928-14.526,9.051c-2.387,1.61-4.879,3.024-7.319,4.568c-2.45,1.523-4.882,3.111-7.311,4.734
	c-4.905,3.142-9.851,6.284-14.634,10.064l122.926,90.682c7.8-9.083,12.043-19.203,11.7-29.757
	c-0.412-12.667-7.369-24.258-19.044-33.847C482.702,187.251,494.544,167.387,491.491,148.396z"/>
<linearGradient id="SVGID_17_" gradientUnits="userSpaceOnUse" x1="389.2755" y1="256.5774" x2="342.7055" y2="333.1974" gradientTransform="matrix(1.0039 0 0 -1.0039 0.1922 516.5615)">
	<stop  offset="0" style="stop-color:#E2EDF2;stop-opacity:0"/>
	<stop  offset="1" style="stop-color:#4975AD"/>
</linearGradient>
<path style="fill:url(#SVGID_17_);" d="M461.844,274.611c11.684-10.59,18.278-22.992,17.854-36.057
	c-0.412-12.667-7.369-24.258-19.044-33.847c10.737-8.5,19.044-17.572,24.398-26.835l-34.65-25.56
	c-23.336,18.72-48.74,33.36-74.966,46.337c-16.561,8.127-33.278,15.922-50.168,23.145L250.35,263.4
	c0.069,0.131,0.144,0.259,0.214,0.389L424.16,391.85C459.082,362.172,488.735,320.395,461.844,274.611z"/>
<linearGradient id="SVGID_18_" gradientUnits="userSpaceOnUse" x1="140.1703" y1="287.0179" x2="457.5103" y2="316.408" gradientTransform="matrix(1.0039 0 0 -1.0039 0.1922 516.5615)">
	<stop  offset="0" style="stop-color:#9FC7E2"/>
	<stop  offset="1" style="stop-color:#4975AD"/>
</linearGradient>
<path style="fill:url(#SVGID_18_);" d="M153.397,238c-0.902,1.493-1.502,3.108-1.61,4.684c-0.1,1.575,0.228,3.077,0.952,4.418
	c1.461,2.69,4.176,4.739,7.151,6.237c2.996,1.508,6.292,2.572,9.674,3.317c6.774,1.519,13.864,1.942,20.939,1.88
	c7.088-0.093,14.2-0.698,21.286-1.666c14.176-1.938,28.24-5.177,42.136-9.118c6.944-1.996,13.869-4.106,20.733-6.446
	c6.877-2.298,13.722-4.73,20.514-7.335c27.194-10.317,53.93-22.401,80.259-35.326c26.231-12.976,51.632-27.617,74.975-46.336
	c-4.696,5.893-9.817,11.461-15.24,16.707c-5.408,5.267-11.11,10.222-16.986,14.949c-11.768,9.444-24.311,17.826-37.185,25.523
	c-25.765,15.207-52.585,28.526-80.609,39.143c-7.016,2.61-14.085,5.097-21.232,7.364c-7.163,2.213-14.371,4.312-21.674,6.077
	c-7.303,1.76-14.663,3.333-22.107,4.5c-7.435,1.215-14.945,2.064-22.504,2.49c-3.777,0.236-7.572,0.295-11.37,0.261
	c-3.798-0.038-7.606-0.2-11.41-0.571c-7.601-0.714-15.226-2.077-22.6-4.76c-3.667-1.376-7.292-3.06-10.626-5.426
	c-1.661-1.184-3.248-2.544-4.657-4.141c-1.404-1.595-2.616-3.487-3.34-5.637c-0.729-2.14-0.868-4.557-0.303-6.713
	c0.557-2.163,1.689-4.014,3.029-5.511c1.353-1.5,2.965-3.372,4.587-4.366C157.801,231.197,155.199,234.959,153.397,238z"/>
<linearGradient id="SVGID_19_" gradientUnits="userSpaceOnUse" x1="439.4665" y1="215.4059" x2="420.6065" y2="270.5859" gradientTransform="matrix(1.0039 0 0 -1.0039 0.1922 516.5615)">
	<stop  offset="0" style="stop-color:#E2EDF2;stop-opacity:0"/>
	<stop  offset="1" style="stop-color:#4975AD"/>
</linearGradient>
<path style="fill:url(#SVGID_19_);" d="M479.705,240.258c-0.09,6.696-2.025,13.202-5.53,19.362
	c-3.009,5.295-7.177,10.323-12.334,14.994c13.73,23.365,12.722,45.69,3.796,65.896l-92.75-68.422
	c7.604-1.679,15.073-3.113,22.455-4.776c7.374-1.649,14.68-3.331,21.91-5.241c14.449-3.746,28.654-8.061,42.429-13.264
	c3.463-1.267,6.866-2.639,10.227-4.09C473.238,243.337,476.498,241.83,479.705,240.258z"/>
<linearGradient id="SVGID_20_" gradientUnits="userSpaceOnUse" x1="367.3419" y1="259.1547" x2="513.892" y2="283.4447" gradientTransform="matrix(1.0039 0 0 -1.0039 0.1922 516.5615)">
	<stop  offset="0" style="stop-color:#9FC7E2"/>
	<stop  offset="1" style="stop-color:#4975AD"/>
</linearGradient>
<path style="fill:url(#SVGID_20_);" d="M372.887,272.088c7.604-1.675,15.069-3.115,22.453-4.773
	c7.38-1.648,14.684-3.336,21.909-5.243c14.45-3.741,28.657-8.061,42.437-13.259c3.452-1.274,6.86-2.645,10.219-4.097
	c3.383-1.394,6.69-2.935,9.945-4.52c3.263-1.57,6.411-3.31,9.452-5.103c3.011-1.828,5.907-3.784,8.322-5.9
	c1.173-1.066,2.266-2.144,3.037-3.17c0.793-1.032,1.141-1.9,1.332-2.353c0.018-0.216,0.163-0.435,0.049-0.742
	c-0.027-0.317-0.288-0.718-0.593-1.19c-0.695-0.941-1.996-1.885-3.427-2.7c-0.693-0.448-1.504-0.79-2.274-1.192
	c-0.82-0.335-1.623-0.71-2.479-1.026c-1.692-0.664-3.456-1.239-5.257-1.779c-3.602-1.064-7.33-2.001-11.11-2.937
	c3.816-0.755,7.685-1.266,11.626-1.383c3.951-0.098,7.953,0.022,12.172,1.157c2.1,0.587,4.279,1.375,6.475,2.999
	c0.539,0.461,1.092,0.866,1.599,1.43c0.501,0.585,1.022,1.125,1.438,1.865c0.214,0.354,0.434,0.704,0.622,1.08
	c0.171,0.393,0.333,0.794,0.487,1.201c0.33,0.804,0.449,1.68,0.609,2.538c0.159,1.69,0.06,3.41-0.333,4.829
	c-0.164,0.761-0.398,1.422-0.643,2.077c-0.233,0.691-0.524,1.255-0.806,1.861c-1.164,2.348-2.542,4.281-4.008,6.026
	c-1.461,1.755-3.004,3.267-4.569,4.753c-1.586,1.421-3.211,2.776-4.863,4.021c-3.288,2.546-6.734,4.718-10.207,6.773
	c-3.484,2.038-7.06,3.828-10.65,5.544c-3.617,1.653-7.269,3.188-10.956,4.602c-14.776,5.556-30.132,9.056-45.625,10.658
	C403.785,275.658,388.091,275.408,372.887,272.088z"/>
<linearGradient id="SVGID_21_" gradientUnits="userSpaceOnUse" x1="337.5208" y1="365.1612" x2="467.7108" y2="386.7412" gradientTransform="matrix(1.0039 0 0 -1.0039 0.1922 516.5615)">
	<stop  offset="0" style="stop-color:#9FC7E2"/>
	<stop  offset="1" style="stop-color:#4975AD"/>
</linearGradient>
<path style="fill:url(#SVGID_21_);" d="M459.727,101.051c-1.02,2.919-2.449,5.639-3.943,8.305c-1.529,2.636-3.165,5.228-4.947,7.68
	c-3.505,4.985-7.498,9.532-11.665,13.906c-8.412,8.661-17.917,16.076-27.932,22.536c-2.533,1.565-5.081,3.106-7.643,4.616
	c-2.569,1.497-5.237,2.797-7.876,4.149c-5.253,2.762-10.754,4.968-16.25,7.118c-2.735,1.108-5.567,1.969-8.387,2.839
	c-2.82,0.87-5.658,1.675-8.498,2.444c-2.866,0.704-5.782,1.251-8.695,1.767c-2.916,0.508-5.843,0.956-8.816,1.218
	c4.784-3.781,9.729-6.922,14.634-10.064c2.43-1.624,4.861-3.212,7.311-4.734c2.441-1.544,4.931-2.958,7.319-4.568
	c4.821-3.123,9.761-5.941,14.526-9.051l3.623-2.235c1.205-0.748,2.447-1.432,3.614-2.236c2.375-1.543,4.767-3.055,7.171-4.544
	c9.517-6.108,18.97-12.262,28.337-18.705c4.676-3.228,9.376-6.485,14.023-9.89C450.327,108.227,454.977,104.774,459.727,101.051z"/>
<linearGradient id="SVGID_22_" gradientUnits="userSpaceOnUse" x1="394.3255" y1="139.5062" x2="362.5255" y2="212.2062" gradientTransform="matrix(1.0039 0 0 -1.0039 0.1922 516.5615)">
	<stop  offset="0" style="stop-color:#E2EDF2;stop-opacity:0"/>
	<stop  offset="1" style="stop-color:#4975AD"/>
</linearGradient>
<path style="fill:url(#SVGID_22_);" d="M463.995,344.033c-16.653-12.319-39.785-30.187-39.785-30.187
	c-12.124,2.307-23.676,4.877-35.207,7.038c-11.505,2.15-22.878,4.099-34.206,5.093c-11.325,1.068-22.564,1.22-33.73-0.072
	c-5.575-0.685-11.132-1.746-16.702-3.293c-5.549-1.611-11.019-3.773-16.754-6.269c3.649,5.155,8.364,9.551,13.621,13.233
	c0.007,0.005,0.015,0.009,0.022,0.014l104.152,76.834C427.805,390.417,451.743,368.924,463.995,344.033z"/>
<linearGradient id="SVGID_23_" gradientUnits="userSpaceOnUse" x1="293.1148" y1="221.5836" x2="415.6048" y2="170.8036" gradientTransform="matrix(1.0039 0 0 -1.0039 0.1922 516.5615)">
	<stop  offset="0" style="stop-color:#9FC7E2"/>
	<stop  offset="1" style="stop-color:#4975AD"/>
</linearGradient>
<path style="fill:url(#SVGID_23_);" d="M424.209,313.846c-2.325,2.129-4.828,3.994-7.379,5.768
	c-2.557,1.765-5.183,3.417-7.865,4.962c-5.363,3.096-10.95,5.758-16.685,8.086c-5.741,2.306-11.652,4.213-17.685,5.719
	c-6.029,1.522-12.202,2.578-18.451,3.151c-6.246,0.575-12.576,0.704-18.905,0.102c-0.79-0.073-1.578-0.106-2.369-0.215l-2.367-0.33
	c-1.577-0.229-3.148-0.42-4.713-0.782c-1.565-0.332-3.125-0.661-4.675-1.032l-4.61-1.361c-6.081-2.044-11.962-4.752-17.273-8.339
	c-5.258-3.681-9.972-8.078-13.621-13.233c5.735,2.497,11.206,4.658,16.754,6.269c5.571,1.547,11.128,2.608,16.702,3.293
	c11.166,1.292,22.405,1.14,33.73,0.072c11.327-0.995,22.702-2.943,34.206-5.093C400.535,318.724,412.085,316.153,424.209,313.846z"
	/>
<g>
</g>
<g>
</g>
<g>
</g>
<g>
</g>
<g>
</g>
<g>
</g>
<g>
</g>
<g>
</g>
<g>
</g>
<g>
</g>
<g>
</g>
<g>
</g>
<g>
</g>
<g>
</g>
<g>
</g>
</svg>
