<?xml version="1.0" encoding="iso-8859-1"?>
<!-- Generator: Adobe Illustrator 19.0.0, SVG Export Plug-In . SVG Version: 6.00 Build 0)  -->
<svg version="1.1" id="Capa_1" xmlns="http://www.w3.org/2000/svg" xmlns:xlink="http://www.w3.org/1999/xlink" x="0px" y="0px"
	 viewBox="0 0 512 512" style="enable-background:new 0 0 512 512;" xml:space="preserve">
<path style="fill:#6C797A;" d="M203.573,72.678c0-26.13-23.967-46.874-49.894-46.874c-8.686,0-14.362,0.159-21.345,4.299
	C126.12,11.308,106.125,0,85.38,0C59.445,0,38.418,21.177,38.418,47.307c0,3.769,0.486,7.415,1.306,10.929
	C16.764,65.077,0,86.457,0,111.819c0,30.323,23.967,54.943,53.857,55.826c2.304-0.883,155.604-25.715,158.005-26.403l16.861-60.46
	C221.775,75.679,213.222,72.678,203.573,72.678z"/>
<path style="fill:#AFB6BB;" d="M451.09,112.296c1.271-5.173,2.013-10.549,2.013-16.102c0-38.497-32.23-69.711-71.998-69.711
	c-31.806,0-62.464,16.666-71.989,44.367c-10.699-6.109-19.403-6.338-32.724-6.338c-36.573,0-67.866,24.903-72.651,58.862
	l-0.706,150.281h210.794h13.091c46.989,0,85.08-36.891,85.08-82.388C512,153.9,486.294,122.386,451.09,112.296z"/>
<path style="fill:#E7ECED;" d="M308.966,185.379c0-38.506-33.598-67.902-73.357-67.902c-13.321,0-22.025,0.23-32.724,6.338
	c-9.525-27.701-40.192-44.367-71.989-44.367c-39.759,0-71.989,31.214-71.989,69.711c0,5.553,0.742,10.92,2.004,16.102
	C25.706,175.351,0,206.866,0,244.233c0,45.497,38.091,82.388,85.08,82.388h13.091h51.385h54.069h84.339h19.633
	c39.759,0,71.989-31.214,71.989-69.711S348.725,185.379,308.966,185.379z"/>
<polygon style="fill:#EBBA16;" points="247.172,361.931 194.207,361.931 229.517,229.517 105.931,379.586 158.897,379.586 
	123.586,512 "/>
<g>
</g>
<g>
</g>
<g>
</g>
<g>
</g>
<g>
</g>
<g>
</g>
<g>
</g>
<g>
</g>
<g>
</g>
<g>
</g>
<g>
</g>
<g>
</g>
<g>
</g>
<g>
</g>
<g>
</g>
</svg>
