<?xml version="1.0" encoding="iso-8859-1"?>
<!-- Generator: Adobe Illustrator 19.0.0, SVG Export Plug-In . SVG Version: 6.00 Build 0)  -->
<svg version="1.1" id="Capa_1" xmlns="http://www.w3.org/2000/svg" xmlns:xlink="http://www.w3.org/1999/xlink" x="0px" y="0px"
	 viewBox="0 0 512 512" style="enable-background:new 0 0 512 512;" xml:space="preserve">
<circle style="fill:#FFD00D;" cx="256" cy="256" r="245"/>
<g>
	<path style="fill:#FFAF10;" d="M405.879,193.791C381.789,134.686,323.764,93.02,256,93.02
		c-67.765,0-125.789,41.666-149.879,100.771H405.879z"/>
	<path style="fill:#FFAF10;" d="M390.633,300.531H309.51c-18.483,0-33.52-15.036-33.52-33.518v-20.82c0-0.552-0.448-1-1-1h-37.976
		c-0.552,0-1,0.448-1,1v20.82c0,18.482-15.036,33.518-33.519,33.518h-81.127c-8.91,0-17.012-3.5-23.022-9.189
		c16.56,71.764,80.859,125.269,157.654,125.269c76.794,0,141.094-53.504,157.654-125.269
		C407.645,297.031,399.542,300.531,390.633,300.531z"/>
</g>
<g>
	<path style="fill:#EF8318;" d="M373.65,193.791c-22.077-42.475-66.472-71.49-117.649-71.49c-51.178,0-95.573,29.016-117.649,71.49
		H373.65z"/>
	<path style="fill:#EF8318;" d="M309.51,300.531c-18.483,0-33.52-15.036-33.52-33.518v-20.82c0-0.552-0.448-1-1-1h-37.976
		c-0.552,0-1,0.448-1,1v20.82c0,18.482-15.036,33.518-33.519,33.518h-70.909c18.621,50.659,67.296,86.798,124.414,86.798
		c57.117,0,105.793-36.139,124.414-86.798H309.51z"/>
</g>
<g>
	<path style="fill:#DB722C;" d="M158.863,193.791c20.587-39.61,60.586-67.515,107.395-71.099c-3.385-0.259-6.806-0.392-10.257-0.392
		c-51.178,0-95.573,29.016-117.649,71.49L158.863,193.791L158.863,193.791z"/>
	<path style="fill:#DB722C;" d="M152.105,300.531h-20.519c18.621,50.659,67.296,86.798,124.414,86.798
		c3.451,0,6.872-0.133,10.257-0.392C213.624,382.908,169.601,348.128,152.105,300.531z"/>
	<path style="fill:#DB722C;" d="M278.5,301H252v-55.808h-14.986c-0.005,0-0.009,0.003-0.014,0.003V303.5
		c0,6.893,5.607,12.5,12.5,12.5h29c4.142,0,7.5-3.358,7.5-7.5S282.642,301,278.5,301z"/>
</g>
<path style="fill:#FFFFFF;" d="M416.524,192.791H95.478c-4.767,0-8.632,3.862-8.632,8.632v65.59
	c0,19.033,15.489,34.518,34.521,34.518h81.127c19.031,0,34.519-15.486,34.519-34.518v-20.82h37.976v20.82
	c0,19.033,15.486,34.518,34.52,34.518h81.124c19.036,0,34.521-15.486,34.521-34.518v-65.59
	C425.154,196.654,421.29,192.791,416.524,192.791z"/>
<path style="fill:#EEF6FF;" d="M118,267.013v-65.59c0-4.77,3.865-8.632,8.632-8.632H95.478c-4.767,0-8.632,3.862-8.632,8.632v65.59
	c0,19.033,15.489,34.518,34.521,34.518h31.154C133.489,301.531,118,286.046,118,267.013z"/>
<path style="fill:#37C47A;" d="M121.365,281.767c-8.135,0-14.754-6.62-14.754-14.754v-47.87c0-3.64,2.948-6.588,6.588-6.588h97.461
	c3.638,0,6.588,2.948,6.588,6.588v47.87c0,8.134-6.62,14.754-14.758,14.754H121.365z"/>
<g>
	<path style="fill:#60D882;" d="M150.257,281.767h21.081l39.924-69.152c-0.201-0.018-0.396-0.06-0.602-0.06h-20.445L150.257,281.767
		z"/>
	<path style="fill:#60D882;" d="M153.982,212.555l-39.086,67.7c1.956,0.959,4.147,1.512,6.468,1.512h13.74l39.96-69.212H153.982z"/>
</g>
<path style="fill:#37C47A;" d="M309.51,281.767c-8.138,0-14.757-6.62-14.757-14.754v-47.87c0-3.64,2.95-6.588,6.588-6.588h97.462
	c3.641,0,6.589,2.948,6.589,6.588v47.87c0,8.134-6.62,14.754-14.759,14.754H309.51z"/>
<g>
	<path style="fill:#60D882;" d="M338.401,281.767h21.08l39.924-69.152c-0.2-0.018-0.395-0.06-0.602-0.06h-20.442L338.401,281.767z"
		/>
	<path style="fill:#60D882;" d="M342.126,212.555l-39.087,67.7c1.958,0.959,4.147,1.512,6.471,1.512h13.738l39.961-69.212H342.126z"
		/>
</g>
<path style="fill:#EF9614;" d="M226.948,65.656c-3.663,0-5.162-2.595-3.33-5.768L256.82,2.38c1.832-3.173,4.829-3.173,6.661,0
	l33.203,57.508c1.831,3.172,0.331,5.768-3.331,5.768H226.948z"/>
<path style="fill:#FFAF10;" d="M370.05,100.862c-2.59-2.59-1.814-5.486,1.725-6.432l64.14-17.189
	c3.539-0.948,5.658,1.173,4.71,4.711l-17.186,64.141c-0.947,3.539-3.843,4.314-6.433,1.725L370.05,100.862z"/>
<path style="fill:#EF9614;" d="M446.345,226.947c0-3.663,2.595-5.163,5.768-3.331l57.508,33.202c3.173,1.83,3.173,4.829,0,6.661
	l-57.508,33.203c-3.173,1.83-5.768,0.332-5.768-3.332V226.947z"/>
<g>
	<path style="fill:#FFAF10;" d="M411.138,370.049c2.59-2.59,5.485-1.813,6.433,1.724l17.188,64.142
		c0.947,3.539-1.172,5.658-4.711,4.71l-64.141-17.188c-3.539-0.948-4.315-3.843-1.725-6.434L411.138,370.049z"/>
	<path style="fill:#FFAF10;" d="M141.95,411.135c2.59,2.59,1.815,5.484-1.724,6.434l-64.142,17.188
		c-3.538,0.949-5.658-1.172-4.711-4.709l17.188-64.141c0.947-3.539,3.843-4.315,6.435-1.725L141.95,411.135z"/>
</g>
<path style="fill:#EF9614;" d="M65.657,285.052c0,3.664-2.595,5.163-5.768,3.331L2.38,255.181c-3.173-1.833-3.173-4.831,0-6.661
	l57.508-33.203c3.173-1.831,5.768-0.332,5.768,3.33L65.657,285.052z"/>
<path style="fill:#FFAF10;" d="M100.864,141.95c-2.59,2.589-5.486,1.814-6.433-1.724L77.242,76.082
	c-0.947-3.538,1.172-5.656,4.711-4.708l64.141,17.187c3.539,0.948,4.314,3.844,1.725,6.434L100.864,141.95z"/>
<path style="fill:#EF9614;" d="M285.053,446.342c3.663,0,5.162,2.596,3.33,5.77l-33.202,57.509c-1.832,3.173-4.829,3.173-6.661,0
	l-33.201-57.508c-1.833-3.172-0.333-5.769,3.33-5.769L285.053,446.342z"/>
<path style="fill:#DB722C;" d="M257.234,361.011c-21.199,0-42.398-8.069-58.537-24.208c-2.929-2.929-2.929-7.678,0-10.606
	c2.929-2.929,7.678-2.929,10.606,0c26.429,26.428,69.432,26.428,95.86,0c2.929-2.929,7.678-2.929,10.606,0
	c2.929,2.929,2.929,7.678,0,10.606C299.632,352.942,278.433,361.011,257.234,361.011z"/>
<g>
</g>
<g>
</g>
<g>
</g>
<g>
</g>
<g>
</g>
<g>
</g>
<g>
</g>
<g>
</g>
<g>
</g>
<g>
</g>
<g>
</g>
<g>
</g>
<g>
</g>
<g>
</g>
<g>
</g>
</svg>
